<svg xmlns="http://www.w3.org/2000/svg" viewBox="0 0 192 192">
  <defs>
    <style>
      .cls-1{fill:#fff;}
    </style>
  </defs>
  <path id="Layer_1" d="M0 0h192v192H0z" data-name="Layer 1"/>
  <g id="Layer_3" data-name="Layer 3">
    <path d="M185.5 46l1.4-20h-16l1.1-16h-20l-1.12 16h-100L52 10H32l-1.11 16h-16L13.5 46h16l-7 100h-16l-1.4 20h16L20 182h20l1.12-16h100L140 182h20l1.12-16h16l1.4-20h-16l7-100zm-43 100h-100l7-100h100z" class="cls-1"/>
    <path d="M102 96H90l3.52-50.33h12L102 96z" class="cls-1"/>
    <path d="M99.94 100.24l-7.88-8.48 30.26-28.28 7.89 8.48-30.27 28.28z" class="cls-1"/>
    <path d="M95.51 103A6.45 6.45 0 0 1 89 96a7.63 7.63 0 0 1 7.49-7 6.45 6.45 0 0 1 6.51 7 7.63 7.63 0 0 1-7.49 7z"/>
    <path d="M96.28 92a3.69 3.69 0 0 1 3.72 4 4.36 4.36 0 0 1-4.28 4A3.69 3.69 0 0 1 92 96a4.36 4.36 0 0 1 4.28-4m.42-6A10.89 10.89 0 0 0 86 96a9.2 9.2 0 0 0 9.3 10A10.89 10.89 0 0 0 106 96a9.2 9.2 0 0 0-9.3-10z" class="cls-1"/>
  </g>
</svg>
