<svg xmlns="http://www.w3.org/2000/svg" viewBox="0 0 192 192"><defs><style>.cls-1{fill:#fff;}</style></defs><title>hex_clock</title><g id="Layer_1" data-name="Layer 1"><rect width="192" height="192"/></g><g id="Layer_2" data-name="Layer 2"><rect class="cls-1" x="32.51" y="18" width="18.14" height="156"/><rect class="cls-1" x="141.35" y="18" width="18.14" height="156"/><rect class="cls-1" x="86.93" y="-36.42" width="18.14" height="156" transform="translate(137.58 -54.42) rotate(90)"/><rect class="cls-1" x="86.93" y="72.42" width="18.14" height="156" transform="translate(246.42 54.42) rotate(90)"/><rect class="cls-1" x="90" y="46.09" width="12" height="49.91"/><rect class="cls-1" x="104.14" y="61.86" width="12" height="40" transform="translate(90.14 -53.91) rotate(45)"/><circle cx="96" cy="96" r="7"/><path class="cls-1" d="M96,92a4,4,0,1,1-4,4,4,4,0,0,1,4-4m0-6a10,10,0,1,0,10,10A10,10,0,0,0,96,86Z"/></g></svg>